<svg version="1.1" xmlns="http://www.w3.org/2000/svg" style="display: block;" viewBox="0 0 1180 1100" width="295" height="275" preserveAspectRatio="none">
<defs>
	<linearGradient id="Gradient1" gradientUnits="userSpaceOnUse" x1="570.982" y1="880.328" x2="754.184" y2="241.812">
		<stop class="stop0" offset="0" stop-opacity="1" stop-color="rgb(50,28,189)"/>
		<stop class="stop1" offset="1" stop-opacity="1" stop-color="rgb(142,64,240)"/>
	</linearGradient>
</defs>
<path transform="translate(0,0)" fill="rgb(255,255,255)" d="M 0 0 L 1180 0 L 1180 1100 L 0 1100 L 0 0 z"/>
<path transform="translate(0,0)" fill="url(#Gradient1)" d="M 599.763 194.423 C 690.416 164.209 800.292 183.904 873.947 244.164 C 893.592 260.236 917.262 282.756 931.099 304.166 C 947.249 323.338 964.073 360.729 971.666 384.147 C 994.821 456.695 988.06 535.485 952.883 603.027 C 894.2 717.505 772.333 773.345 646.862 756.612 C 640.92 755.82 634.902 755.02 629.067 753.63 C 618.678 751.155 596.567 741.546 586.855 745.196 C 570.683 751.273 582.596 803.815 575.563 820.439 C 572.462 827.768 566.925 833.471 559.495 836.408 C 555.168 838.118 550.727 838.638 546.109 838.882 C 528.096 839.834 509.512 838.326 491.425 838.406 C 469.401 838.502 446.481 840.236 424.564 838.878 C 419.628 838.572 414.391 837.851 409.848 835.801 C 402.471 832.473 396.375 825.622 393.791 817.952 C 390.415 807.929 392.41 719.4 392.411 701.16 C 392.415 621.681 390.81 541.808 392.876 462.377 C 393.075 453.535 393.767 444.711 394.951 435.946 C 399.329 402.144 409.763 369.408 425.754 339.307 C 462.205 269.812 524.815 217.682 599.763 194.423 z"/>
<path transform="translate(0,0)" fill="rgb(140,68,236)" d="M 599.763 194.423 C 690.416 164.209 800.292 183.904 873.947 244.164 C 893.592 260.236 917.262 282.756 931.099 304.166 C 931.137 307.862 931.762 308.284 929.948 310.984 C 929.841 311.006 889.909 316.201 890.628 316.26 C 876.882 315.119 855.238 301.68 842.892 297.224 C 822.386 289.823 800.173 283.322 780.039 274.445 C 767.765 269.033 753.669 258.649 740.567 254.198 C 734.957 252.293 725.058 250.925 718.676 249.548 C 705.677 246.744 694.504 244.258 681.089 242.653 C 667.989 241.086 657.176 240.974 643.589 239.632 C 629.626 238.253 606.795 234.416 596.688 223.341 C 594.83 221.305 596.205 216.295 596.617 213.387 C 594.708 209.874 595.277 214.102 591.698 211.177 C 592.312 203.336 598.145 201.633 599.763 194.423 z"/>
<path transform="translate(0,0)" fill="rgb(255,255,255)" d="M 681.981 300.435 C 703.132 299.701 721.893 301.63 742.208 307.77 C 786.023 321.314 822.729 351.591 844.36 392.029 C 865.278 431.364 869.645 477.416 856.493 519.981 C 843.12 563.531 813.007 599.992 772.77 621.355 C 728.712 644.581 681.85 646.735 634.776 632.272 L 613.979 624.284 C 598.278 631.03 527.047 672.769 517.448 671.347 C 515.012 670.986 512.491 669.56 511.179 667.435 C 509.584 664.853 509.78 661.82 510.164 658.94 C 511.458 649.22 514.785 639.308 517.273 629.798 C 523.757 605.019 531.553 579.914 535.909 554.68 C 524.907 525.116 516.936 517.461 514.72 481.155 C 512.314 436.324 527.829 392.376 557.848 358.992 C 590.414 322.473 633.508 303.249 681.981 300.435 z"/>
<path transform="translate(0,0)" fill="rgb(140,68,236)" d="M 612.332 403.145 C 662.892 401.823 714.547 404 765.193 403.268 C 785.922 402.968 792.454 428.915 769.73 434.952 C 752.151 435.344 612.712 436.411 607.172 433.84 C 603.192 431.994 599.113 428.254 597.62 424.041 C 596.013 419.507 597.267 416.44 599.355 412.358 C 602.234 406.728 606.593 404.965 612.332 403.145 z"/>
<path transform="translate(0,0)" fill="rgb(140,68,236)" d="M 608.894 457.178 C 628.479 456.386 764.09 454.641 774.681 458.532 C 777.92 459.722 780.414 462.505 781.803 465.607 C 783.692 469.829 783.996 475.223 782.22 479.539 C 780.269 484.281 776.33 486.078 771.861 487.882 C 758.874 489.447 727.614 488.555 712.952 488.514 C 678.576 488.417 641.24 489.468 607.005 487.921 C 592.86 478.676 594.086 465.04 608.894 457.178 z"/>
<path transform="translate(0,0)" fill="rgb(140,68,236)" d="M 610.445 510.422 C 624.29 509.712 702.358 507.906 711.321 511.484 C 715.924 513.322 719.759 517.302 721.57 521.911 C 722.807 525.059 723.011 528.478 721.591 531.612 C 718.818 537.734 715.547 539.615 709.45 541.902 C 676.338 542.393 641.348 542.067 608.222 541.86 C 593.362 532.267 592.706 516.02 610.445 510.422 z"/>
</svg>